<svg width="30" height="30" viewBox="0 0 30 30" fill="none" xmlns="http://www.w3.org/2000/svg">
<path d="M21.3158 15.7693C25.2399 15.7693 28.5629 19.1378 26.6859 22.5838C26.4829 22.9564 26.2629 23.3207 26.0261 23.6755C24.4647 26.0158 22.2453 27.8398 19.6487 28.9169C17.052 29.994 14.1948 30.2758 11.4382 29.7267C8.68162 29.1776 6.14954 27.8222 4.16217 25.832C2.17479 23.8418 0.821368 21.3061 0.273051 18.5456C-0.275265 15.7851 0.00615083 12.9238 1.08171 10.3235C2.15727 7.72313 3.97867 5.50059 6.31558 3.93689C6.66474 3.70326 7.02306 3.4859 7.38939 3.28517C10.8357 1.3968 14.2105 4.7293 14.2105 8.65902C14.2105 12.5832 17.3917 15.7693 21.3158 15.7693Z" fill="#FF5029"/>
<ellipse cx="23.2894" cy="6.92308" rx="6.71053" ry="6.92308" fill="white"/>
<ellipse cx="23.2895" cy="6.92308" rx="1.97368" ry="1.92308" fill="#202224"/>
</svg>
