<svg width="24" height="34" viewBox="0 0 24 10" fill="none" xmlns="http://www.w3.org/2000/svg">
<rect width="24" height="34" fill="#F5F5F5"/>
<path d="M0.264 9V8.82C1.068 8.736 1.14 8.628 1.14 8.004V1.572C1.14 0.948 1.068 0.84 0.264 0.756V0.576H4.116C7.524 0.576 9.096 2.316 9.096 4.668C9.096 7.344 7.152 9 4.44 9H0.264ZM3.78 0.816H3.492V7.884C3.492 8.628 3.792 8.796 4.332 8.796H4.404C5.76 8.796 6.66 7.296 6.66 4.932C6.66 2.436 5.616 0.816 3.78 0.816ZM17.2747 7.752L16.5787 1.896L14.2267 9.012H13.8427L11.2387 1.896L10.5547 7.788C10.4587 8.688 10.8187 8.76 11.8507 8.82V9H9.19866V8.82C9.88266 8.784 10.1707 8.64 10.2307 8.088L10.9867 1.632C10.9867 1.008 10.7467 0.792 9.95466 0.756V0.576H13.3027C13.3267 0.852 13.3987 1.08 13.4947 1.344L15.0667 5.652L16.4707 1.344C16.5667 1.032 16.6267 0.852 16.6507 0.576H19.9387V0.756C19.1107 0.792 18.8947 1.008 18.8947 1.632L19.6627 8.088C19.7347 8.676 19.9867 8.784 20.6707 8.82V9H16.2787V8.82C17.2267 8.772 17.3827 8.676 17.2747 7.752ZM21.2194 7.884C21.2194 7.152 21.7714 6.636 22.4554 6.636C23.1514 6.636 23.6914 7.152 23.6914 7.884C23.6914 8.616 23.1514 9.12 22.4554 9.12C21.7714 9.12 21.2194 8.616 21.2194 7.884Z" fill="black"/>
</svg>
